# xmcd CD database file
#
# Track frame offsets:
#	150
#	21337
#	36013
#	51729
#	70282
#	85214
#	103542
#	122779
#	139853
#	163554
#	177046
#	200595
#	226756
#	246207
#
# Disc length: 3543 seconds
#
# Revision: 0
# Processed by: cddbd v1.5.2PL0 Copyright (c) Steve Scherf et al.
# Submitted via: CDex 1.77
#
DISCID=c10dd50e
DTITLE=KANAN ROAD  - TAKE ME HOME
DYEAR=2008
DGENRE=Country
TTITLE0=Amazed By You
TTITLE1=Take Me Home
TTITLE2=Ready For More
TTITLE3=Gave Away An Angel
TTITLE4=California Home
TTITLE5=Where You Belong
TTITLE6=I Know
TTITLE7=7 Years Of Hard Luck
TTITLE8=Put Me On A Highway
TTITLE9=500 Miles To Ride
TTITLE10=Ticket Out
TTITLE11=Highway 17
TTITLE12=My Getaway
TTITLE13=Nothing's Ever Easy
EXTD=YEAR: 2008
EXTT0=
EXTT1=
EXTT2=
EXTT3=
EXTT4=
EXTT5=
EXTT6=
EXTT7=
EXTT8=
EXTT9=
EXTT10=
EXTT11=
EXTT12=
EXTT13=
PLAYORDER=
